<svg width="51" height="50" viewBox="0 0 51 50" fill="none" xmlns="http://www.w3.org/2000/svg">
<rect x="0.895264" width="49.8954" height="49.8954" rx="6.42982" fill="#1569DB"/>
<path fill-rule="evenodd" clip-rule="evenodd" d="M28.3385 27.0939C29.5192 26.294 30.2952 24.9417 30.2952 23.4082C30.2952 20.9512 28.3034 18.9595 25.8464 18.9595C23.3895 18.9595 21.3977 20.9512 21.3977 23.4082C21.3977 24.9417 22.1736 26.294 23.3543 27.0939C22.6776 27.4506 22.055 27.953 21.521 28.5841C20.3738 29.9399 19.7294 31.7786 19.7294 33.6959L25.8464 33.6959H31.9634C31.9634 31.7786 31.3189 29.9399 30.1717 28.5841C29.6377 27.953 29.0152 27.4507 28.3385 27.0939Z" fill="white"/>
<path fill-rule="evenodd" clip-rule="evenodd" d="M19.0098 23.2953C20.0268 22.6063 20.6952 21.4414 20.6952 20.1204C20.6952 18.0039 18.9794 16.2881 16.8629 16.2881C14.7463 16.2881 13.0306 18.0039 13.0306 20.1204C13.0306 21.4414 13.6989 22.6063 14.716 23.2954C14.1331 23.6027 13.5969 24.0354 13.1369 24.579C12.1487 25.7469 11.5935 27.3309 11.5935 28.9825L16.8629 28.9825H22.1324C22.1324 27.3309 21.5772 25.7469 20.589 24.579C20.129 24.0354 19.5927 23.6026 19.0098 23.2953Z" fill="white"/>
<path fill-rule="evenodd" clip-rule="evenodd" d="M36.9015 23.2953C37.9185 22.6063 38.5869 21.4414 38.5869 20.1204C38.5869 18.0039 36.8711 16.2881 34.7546 16.2881C32.638 16.2881 30.9223 18.0039 30.9223 20.1204C30.9223 21.4414 31.5906 22.6063 32.6076 23.2953C32.0248 23.6026 31.4885 24.0354 31.0285 24.579C30.0403 25.7469 29.4851 27.3309 29.4851 28.9825L34.7545 28.9825H40.024C40.024 27.3309 39.4688 25.7469 38.4806 24.579C38.0206 24.0354 37.4843 23.6026 36.9015 23.2953Z" fill="white"/>
</svg>
