<svg width="24" height="29" viewBox="0 0 24 29" fill="none" xmlns="http://www.w3.org/2000/svg">
<path fill-rule="evenodd" clip-rule="evenodd" d="M23.9336 9.08427C23.9336 9.20128 23.9314 9.31777 23.927 9.43371H23.9337V28.9998H19.338L19.3381 29H1.27659L7.55481 15.723H0C0 11.9286 2.46876 8.71084 5.88764 7.5883C6.60099 3.28298 10.3418 0 14.8493 0C19.8664 0 23.9336 4.06717 23.9336 9.08427ZM12.325 9.66677C12.9923 9.66677 13.5333 8.90938 13.5333 7.97511C13.5333 7.04083 12.9923 6.28345 12.325 6.28345C11.6577 6.28345 11.1167 7.04083 11.1167 7.97511C11.1167 8.90938 11.6577 9.66677 12.325 9.66677Z" fill="white"/>
</svg>
