<svg width="44" height="13" viewBox="0 0 44 13" fill="none" xmlns="http://www.w3.org/2000/svg">
<path d="M27.5037 8.99242H18.7537C18.5879 8.99242 18.4289 8.92656 18.3117 8.80937C18.1945 8.69217 18.1287 8.53317 18.1287 8.36745C18.1287 8.20167 18.1945 8.04272 18.3117 7.92548C18.4289 7.80829 18.5879 7.74243 18.7537 7.74243H25.2786C25.6966 7.74243 26.1025 7.60288 26.432 7.3458C26.7615 7.08877 26.9957 6.72901 27.0974 6.32367L28.1286 2.26743C28.1521 2.17519 28.1541 2.07881 28.1346 1.98566C28.1151 1.89251 28.0746 1.80504 28.0161 1.72993C27.9554 1.65289 27.8773 1.59124 27.7883 1.54998C27.6993 1.50872 27.6017 1.489 27.5037 1.49243H18.6037C18.4747 1.12771 18.2361 0.811803 17.9206 0.588017C17.605 0.364227 17.228 0.243516 16.8412 0.242432H16.2537C16.0879 0.242432 15.9289 0.308277 15.8117 0.42549C15.6945 0.542698 15.6287 0.701669 15.6287 0.867428C15.6287 1.03319 15.6945 1.19216 15.8117 1.30937C15.9289 1.42658 16.0879 1.49243 16.2537 1.49243H16.8412C16.9839 1.48827 17.1238 1.53314 17.2375 1.61956C17.3513 1.70599 17.4319 1.82876 17.4662 1.96743L17.5037 2.26743L18.5849 6.49245C18.0876 6.5148 17.6196 6.7338 17.2838 7.10125C16.948 7.46871 16.7719 7.95451 16.7943 8.45179C16.8167 8.94911 17.0357 9.41711 17.4031 9.75292C17.7706 10.0887 18.2564 10.2648 18.7537 10.2424H18.8662C18.7634 10.5257 18.7303 10.8294 18.7699 11.1281C18.8094 11.4268 18.9203 11.7116 19.0932 11.9583C19.2662 12.205 19.496 12.4064 19.7632 12.5455C20.0305 12.6845 20.3274 12.7571 20.6286 12.7571C20.93 12.7571 21.2268 12.6845 21.494 12.5455C21.7613 12.4064 21.9912 12.205 22.1641 11.9583C22.337 11.7116 22.4479 11.4268 22.4874 11.1281C22.527 10.8294 22.494 10.5257 22.3911 10.2424H23.8662C23.7634 10.5257 23.7304 10.8294 23.7699 11.1281C23.8094 11.4268 23.9203 11.7116 24.0933 11.9583C24.2661 12.205 24.496 12.4064 24.7633 12.5455C25.0305 12.6845 25.3274 12.7571 25.6287 12.7571C25.9299 12.7571 26.2268 12.6845 26.4941 12.5455C26.7613 12.4064 26.9912 12.205 27.1641 11.9583C27.337 11.7116 27.4479 11.4268 27.4875 11.1281C27.527 10.8294 27.494 10.5257 27.3912 10.2424H27.5037C27.6694 10.2424 27.8284 10.1766 27.9456 10.0594C28.0628 9.94216 28.1286 9.78321 28.1286 9.61743C28.1286 9.45166 28.0628 9.29271 27.9456 9.17546C27.8284 9.05827 27.6694 8.99242 27.5037 8.99242ZM26.7036 2.74243L25.8849 6.01743C25.8507 6.15611 25.77 6.27887 25.6563 6.36529C25.5425 6.45171 25.4027 6.49661 25.2599 6.49245H19.8662L18.9287 2.74243H26.7036ZM20.6286 11.4924C20.5051 11.4924 20.3842 11.4558 20.2814 11.3871C20.1786 11.3184 20.0985 11.2208 20.0512 11.1066C20.0039 10.9924 19.9915 10.8667 20.0157 10.7455C20.0398 10.6243 20.0993 10.5129 20.1867 10.4255C20.2741 10.3381 20.3855 10.2785 20.5067 10.2544C20.628 10.2303 20.7536 10.2427 20.8678 10.29C20.9821 10.3373 21.0797 10.4174 21.1483 10.5202C21.217 10.623 21.2537 10.7438 21.2537 10.8674C21.2537 11.0332 21.1878 11.1921 21.0706 11.3094C20.9534 11.4266 20.7944 11.4924 20.6286 11.4924ZM25.6287 11.4924C25.505 11.4924 25.3842 11.4558 25.2815 11.3871C25.1786 11.3184 25.0985 11.2208 25.0512 11.1066C25.004 10.9924 24.9916 10.8667 25.0157 10.7455C25.0398 10.6243 25.0993 10.5129 25.1867 10.4255C25.2741 10.3381 25.3855 10.2785 25.5067 10.2544C25.628 10.2303 25.7536 10.2427 25.8679 10.29C25.982 10.3373 26.0796 10.4174 26.1483 10.5202C26.217 10.623 26.2536 10.7438 26.2536 10.8674C26.2536 11.0332 26.1878 11.1921 26.0706 11.3094C25.9534 11.4266 25.7944 11.4924 25.6287 11.4924Z" fill="white"/>
</svg>
