<svg width="50" height="50" viewBox="0 0 50 50" fill="none" xmlns="http://www.w3.org/2000/svg">
<rect y="0.409912" width="49.8954" height="49.0756" rx="6.42982" fill="#1569DB"/>
<path fill-rule="evenodd" clip-rule="evenodd" d="M11.1341 12.8911C11.5295 12.2173 12.4009 11.9839 13.0802 12.3697L15.9548 14.0021C16.3434 14.2227 16.5851 14.5982 16.6467 15.0053C16.6596 15.0525 16.6703 15.1009 16.6785 15.1502L18.6956 27.3002H33.0352L35.4479 18.4436L20.8127 18.4436C20.0314 18.4436 19.3981 17.8103 19.3981 17.0291V16.9929C19.3981 16.2116 20.0314 15.5783 20.8127 15.5783H37.3167C38.0979 15.5783 38.7312 16.2116 38.7312 16.9929V17.0291C38.7312 17.0955 38.7266 17.1609 38.7178 17.2249C38.7274 17.3756 38.7126 17.5306 38.6706 17.6849L35.5608 29.1001C35.4264 29.5933 35.0465 29.9563 34.5883 30.0925C34.447 30.1399 34.2958 30.1655 34.1386 30.1655H17.6569L17.6534 30.1661C16.8821 30.29 16.1531 29.7656 16.0251 28.9949L13.8908 16.1386L11.6236 14.8511C10.9443 14.4653 10.7141 13.6064 11.1096 12.9327L11.1341 12.8911ZM24.9596 34.9848C24.9596 36.6392 23.596 37.9804 21.914 37.9804C20.2319 37.9804 18.8683 36.6392 18.8683 34.9848C18.8683 33.3304 20.2319 31.9892 21.914 31.9892C23.596 31.9892 24.9596 33.3304 24.9596 34.9848ZM20.6957 34.9848C20.6957 35.6466 21.2411 36.183 21.914 36.183C22.5868 36.183 23.1322 35.6466 23.1322 34.9848C23.1322 34.323 22.5868 33.7866 21.914 33.7866C21.2411 33.7866 20.6957 34.323 20.6957 34.9848ZM31.4481 37.9804C33.1302 37.9804 34.4938 36.6392 34.4938 34.9848C34.4938 33.3304 33.1302 31.9892 31.4481 31.9892C29.7661 31.9892 28.4025 33.3304 28.4025 34.9848C28.4025 36.6392 29.7661 37.9804 31.4481 37.9804ZM31.4481 36.183C30.7753 36.183 30.2299 35.6466 30.2299 34.9848C30.2299 34.323 30.7753 33.7866 31.4481 33.7866C32.121 33.7866 32.6664 34.323 32.6664 34.9848C32.6664 35.6466 32.121 36.183 31.4481 36.183Z" fill="white"/>
</svg>
