<svg width="51" height="50" viewBox="0 0 51 50" fill="none" xmlns="http://www.w3.org/2000/svg">
<rect x="0.790771" width="49.8954" height="49.8954" rx="6.42982" fill="#1569DB"/>
<path d="M30.4766 23.8083C29.6983 23.8083 29.0615 23.1715 29.0615 22.3931C29.0615 21.6148 29.6983 20.978 30.4766 20.978C31.255 20.978 31.8918 21.6148 31.8918 22.3931C31.8918 23.1715 31.255 23.8083 30.4766 23.8083ZM30.4766 21.5441C29.9814 21.5441 29.6276 21.8979 29.6276 22.3931C29.6276 22.8884 29.9814 23.2422 30.4766 23.2422C30.9719 23.2422 31.3257 22.8884 31.3257 22.3931C31.3257 21.8979 30.9719 21.5441 30.4766 21.5441Z" fill="white"/>
<path d="M30.4764 23.5956C29.7689 23.5956 29.2736 23.0296 29.2736 22.3928C29.2736 21.756 29.8396 21.1899 30.4764 21.1899C31.184 21.1899 31.6793 21.756 31.6793 22.3928C31.6793 23.0296 31.184 23.5956 30.4764 23.5956ZM30.4764 21.4022C29.9104 21.4022 29.4151 21.8975 29.4151 22.4635C29.4151 23.0296 29.9104 23.5249 30.4764 23.5249C31.0425 23.5249 31.5378 23.0296 31.5378 22.4635C31.5378 21.8975 31.0425 21.4022 30.4764 21.4022Z" fill="white"/>
<path d="M38.4716 34.4215C35.9951 34.4215 34.2262 32.0158 33.0234 30.3884C32.7403 30.0346 32.5281 29.6808 32.3158 29.4686C31.113 28.1242 30.4762 27.7704 29.5563 27.9119C28.9195 28.0534 27.2921 28.4072 25.6647 28.4072C24.0374 28.4072 22.3392 28.0534 21.7732 27.9119C20.8533 27.6997 20.2165 28.1242 19.0137 29.4686C18.8014 29.6808 18.5891 30.0346 18.3061 30.3884C17.1033 32.0158 15.3344 34.4215 12.8579 34.4215C12.0796 34.4215 11.5135 34.2092 11.089 33.7139C10.0277 32.5111 10.3107 30.2469 10.4522 28.478V28.2657C10.523 26.7091 11.2305 22.959 12.2919 20.4826L12.3626 20.4118C12.9994 18.9259 14.3438 15.8834 18.0938 15.6004C20.2165 15.4589 21.4901 15.7419 22.7637 16.0249C23.7543 16.2372 24.5326 16.4495 25.594 16.4495C26.5846 16.4495 27.4336 16.3079 28.3535 16.0957C29.6978 15.8127 30.9714 15.5296 33.0941 15.6004C36.8442 15.8127 38.1886 18.9259 38.8254 20.341L38.8961 20.4826C39.9575 22.8883 40.665 26.7091 40.8773 28.195V28.4072C41.0896 30.1054 41.3018 32.4403 40.2405 33.6432C39.8159 34.1385 39.1791 34.4215 38.4716 34.4215ZM29.9101 27.3459C30.9007 27.3459 31.7498 28.0534 32.6696 29.1148C32.8819 29.3978 33.1649 29.6808 33.3771 30.0346C34.5092 31.5205 36.2074 33.7847 38.4008 33.7847C38.9669 33.7847 39.3914 33.6432 39.7452 33.2894C40.5943 32.2988 40.382 30.1054 40.2405 28.5487V28.3365C40.099 26.8506 39.3914 23.1005 38.3301 20.7656L38.2593 20.6241C37.6225 19.1382 36.4197 16.3787 33.0234 16.2372C30.9714 16.0957 29.6978 16.3787 28.495 16.6617C27.4336 16.874 26.6553 17.0863 25.594 17.0863C24.5326 17.0863 23.6836 16.9447 22.693 16.6617C21.4194 16.3787 20.1458 16.0957 18.0938 16.2372C14.6976 16.3787 13.5655 19.1382 12.9287 20.6241L12.8579 20.7656C11.7966 23.1005 11.089 26.8506 10.9475 28.3365V28.5487C10.806 30.1761 10.523 32.2988 11.4428 33.2894C11.7258 33.6432 12.2211 33.7847 12.7871 33.7847C14.9806 33.7847 16.6787 31.5205 17.8108 30.0346C18.0938 29.6808 18.3061 29.3271 18.5184 29.1148C19.5797 27.8412 20.5703 27.1336 21.8439 27.4166C22.4807 27.5582 24.0374 27.8412 25.6647 27.8412C27.2214 27.8412 28.8488 27.4874 29.4856 27.4166C29.5563 27.3459 29.7686 27.3459 29.9101 27.3459Z" fill="white"/>
<path d="M27.7169 20.2706H23.5423C22.9763 20.2706 22.5518 19.846 22.5518 19.28V16.379C22.5518 16.3082 22.6225 16.2375 22.6933 16.1667C22.764 16.0959 22.8348 16.0959 22.9055 16.0959C23.8254 16.3082 24.6744 16.4497 25.665 16.4497C26.6556 16.4497 27.5047 16.3082 28.4245 16.0959C28.4953 16.0959 28.6368 16.0959 28.6368 16.1667C28.7075 16.2375 28.7783 16.3082 28.7783 16.379V19.28C28.7075 19.7753 28.2122 20.2706 27.7169 20.2706ZM23.0471 16.7328V19.2092C23.0471 19.4215 23.2593 19.6337 23.4716 19.6337H27.6462C27.8585 19.6337 28.0707 19.4215 28.0707 19.2092V16.7328C27.2217 16.945 26.5141 17.0865 25.5235 17.0865C24.6744 17.0865 23.8961 16.945 23.0471 16.7328Z" fill="white"/>
<path d="M38.4721 34.2093C36.1371 34.2093 34.3682 31.8743 33.1654 30.3177C32.8823 29.9639 32.6701 29.6101 32.4578 29.3979C31.3965 28.195 30.7597 27.7705 29.9813 27.7705C29.8398 27.7705 29.6983 27.7705 29.5568 27.8412C28.92 27.9827 27.2926 28.3365 25.6652 28.3365C24.0378 28.3365 22.4104 27.9827 21.7736 27.8412C21.6321 27.8412 21.4906 27.7705 21.3491 27.7705C20.5708 27.7705 19.8632 28.2658 18.8726 29.3979C18.6604 29.6101 18.4481 29.9639 18.1651 30.3177C16.8915 31.8743 15.1226 34.2093 12.7169 34.2093C12.0093 34.2093 11.4433 33.997 11.0895 33.5725C10.0989 32.4404 10.3112 30.1762 10.5234 28.5488V28.3365C10.7357 26.7799 11.4433 22.9591 12.5046 20.5534L12.5754 20.4118C13.2829 18.8552 14.4858 15.9542 18.1651 15.7419C18.4481 15.7419 18.8019 15.7419 19.0849 15.7419C20.6415 15.7419 21.7029 15.9542 22.7642 16.2372H22.835C23.8256 16.4495 24.6039 16.6618 25.5945 16.6618C26.6558 16.6618 27.4341 16.5203 28.354 16.2372H28.4247C29.486 16.025 30.5474 15.7419 32.104 15.7419C32.387 15.7419 32.7408 15.7419 33.0239 15.7419C36.6324 15.9542 37.906 18.8552 38.6136 20.4118L38.6843 20.5534C39.7457 22.9591 40.4532 26.7799 40.5947 28.2658V28.478C40.807 30.1762 41.0193 32.4404 40.0287 33.5017C39.6749 33.997 39.1089 34.2093 38.4721 34.2093ZM29.9106 27.5582C30.7597 27.5582 31.4672 28.0535 32.5286 29.2563C32.7408 29.5394 32.9531 29.8224 33.2361 30.1762C34.3682 31.7328 36.1371 33.997 38.4013 33.997C39.0381 33.997 39.5334 33.7847 39.8872 33.431C40.807 32.3696 40.5947 30.1762 40.3825 28.5488V28.3365C40.241 26.8506 39.4627 23.1006 38.4721 20.6949V20.5534C37.8353 19.0675 36.5617 16.2372 33.0946 16.025C32.8116 16.025 32.4578 16.025 32.1748 16.025C30.6181 16.025 29.5568 16.2372 28.4955 16.5203H28.4247C27.4341 16.7325 26.6558 16.9448 25.5945 16.9448C24.5331 16.9448 23.7548 16.8033 22.7642 16.5203H22.6935C21.6321 16.308 20.5708 16.025 19.0142 16.025C18.7311 16.025 18.4481 16.025 18.0943 16.025C14.6273 16.2372 13.3537 19.0675 12.7169 20.5534L12.6461 20.6949C11.6555 23.0298 10.8772 26.7799 10.7357 28.2658V28.478C10.5942 30.1054 10.3112 32.3696 11.231 33.3602C11.5848 33.8555 12.0801 33.997 12.7169 33.997C14.9811 33.997 16.75 31.662 17.8821 30.1762C18.1651 29.8224 18.3774 29.4686 18.5896 29.2563C19.651 28.0535 20.4293 27.5582 21.2076 27.5582C21.3491 27.5582 21.5614 27.5582 21.7029 27.629C22.3397 27.7705 23.9671 28.1242 25.5237 28.1242C27.1511 28.1242 28.7077 27.7705 29.3445 27.629C29.6276 27.5582 29.7691 27.5582 29.9106 27.5582Z" fill="white"/>
<path d="M27.717 20.0579H23.5424C23.1178 20.0579 22.764 19.7042 22.764 19.2796V16.3786C22.764 16.3786 22.764 16.3079 22.8348 16.3079H22.9056C23.8254 16.5201 24.6745 16.7324 25.665 16.7324C26.7264 16.7324 27.5047 16.5909 28.4245 16.3079H28.4953L28.566 16.3786V19.2796C28.4953 19.7042 28.1415 20.0579 27.717 20.0579ZM22.8348 16.5201V19.2796C22.8348 19.6334 23.1178 19.9164 23.4716 19.9164H27.6462C28 19.9164 28.283 19.6334 28.283 19.2796V16.5201C27.3632 16.7324 26.5849 16.8739 25.5943 16.8739C24.6037 16.8739 23.7546 16.7324 22.8348 16.5201Z" fill="white"/>
<path d="M33.0947 26.4965C32.3164 26.4965 31.6796 25.8597 31.6796 25.0814C31.6796 24.3031 32.3164 23.6663 33.0947 23.6663C33.873 23.6663 34.5098 24.3031 34.5098 25.0814C34.5098 25.8597 33.873 26.4965 33.0947 26.4965ZM33.0947 24.2323C32.5994 24.2323 32.2456 24.5861 32.2456 25.0814C32.2456 25.5767 32.5994 25.9305 33.0947 25.9305C33.59 25.9305 33.9438 25.5767 33.9438 25.0814C33.9438 24.5861 33.59 24.2323 33.0947 24.2323Z" fill="white"/>
<path d="M33.0946 26.2849C32.387 26.2849 31.8917 25.7188 31.8917 25.082C31.8917 24.3744 32.4578 23.8792 33.0946 23.8792C33.8021 23.8792 34.2974 24.4452 34.2974 25.082C34.3682 25.7188 33.8021 26.2849 33.0946 26.2849ZM33.0946 24.0207C32.5285 24.0207 32.0332 24.516 32.0332 25.082C32.0332 25.6481 32.5285 26.1433 33.0946 26.1433C33.6606 26.1433 34.1559 25.6481 34.1559 25.082C34.1559 24.4452 33.6606 24.0207 33.0946 24.0207Z" fill="white"/>
<path d="M35.7833 23.8083C35.005 23.8083 34.3682 23.1715 34.3682 22.3931C34.3682 21.6148 35.005 20.978 35.7833 20.978C36.5616 20.978 37.1984 21.6148 37.1984 22.3931C37.1984 23.1715 36.5616 23.8083 35.7833 23.8083ZM35.7833 21.5441C35.288 21.5441 34.9342 21.9686 34.9342 22.3931C34.9342 22.8177 35.288 23.2422 35.7833 23.2422C36.2786 23.2422 36.6324 22.8884 36.6324 22.3931C36.6324 21.8979 36.2078 21.5441 35.7833 21.5441Z" fill="white"/>
<path d="M35.7833 23.5956C35.0757 23.5956 34.5804 23.0296 34.5804 22.3928C34.5804 21.756 35.1465 21.1899 35.7833 21.1899C36.4909 21.1899 36.9862 21.756 36.9862 22.3928C36.9862 23.0296 36.4201 23.5956 35.7833 23.5956ZM35.7833 21.4022C35.2172 21.4022 34.722 21.8975 34.722 22.4635C34.722 23.0296 35.2172 23.5249 35.7833 23.5249C36.3493 23.5249 36.8446 23.0296 36.8446 22.4635C36.8446 21.8975 36.3493 21.4022 35.7833 21.4022Z" fill="white"/>
<path d="M18.8017 26.0721H18.6602C17.9527 26.0721 17.3866 25.506 17.3866 24.7984V23.8079H16.396C15.6885 23.8079 15.1224 23.2418 15.1224 22.5342V22.322C15.1224 21.6144 15.6885 21.0484 16.396 21.0484H17.3866V20.0578C17.3866 19.3502 17.9527 18.7842 18.6602 18.7842H18.8017C19.5093 18.7842 20.0754 19.3502 20.0754 20.0578V21.0484H21.0659C21.7735 21.0484 22.3396 21.6144 22.3396 22.322V22.4635C22.3396 23.1711 21.7735 23.7371 21.0659 23.7371H20.0754V24.7984C20.1461 25.506 19.5801 26.0721 18.8017 26.0721ZM16.396 21.6144C15.9715 21.6144 15.6885 21.9682 15.6885 22.322V22.4635C15.6885 22.888 16.0423 23.1711 16.396 23.1711H17.6697C17.8112 23.1711 17.9527 23.3126 17.9527 23.4541V24.7984C17.9527 25.223 18.3065 25.506 18.6602 25.506H18.8017C19.2263 25.506 19.5093 25.1522 19.5093 24.7984V23.5248C19.5093 23.3833 19.6508 23.2418 19.7923 23.2418H21.0659C21.4905 23.2418 21.7735 22.888 21.7735 22.5342V22.322C21.7735 21.8974 21.4197 21.6144 21.0659 21.6144H19.7923C19.6508 21.6144 19.5093 21.4729 19.5093 21.3314V20.0578C19.5093 19.6333 19.1555 19.3502 18.8017 19.3502H18.6602C18.2357 19.3502 17.9527 19.704 17.9527 20.0578V21.3314C17.9527 21.4729 17.8112 21.6144 17.6697 21.6144H16.396Z" fill="white"/>
<path d="M33.0947 21.1899C32.3164 21.1899 31.6796 20.5531 31.6796 19.7747C31.6796 18.9964 32.3164 18.3596 33.0947 18.3596C33.873 18.3596 34.5098 18.9964 34.5098 19.7747C34.5098 20.5531 33.873 21.1899 33.0947 21.1899ZM33.0947 18.9257C32.5994 18.9257 32.2456 19.2794 32.2456 19.7747C32.2456 20.27 32.5994 20.6238 33.0947 20.6238C33.59 20.6238 33.9438 20.27 33.9438 19.7747C33.9438 19.2794 33.59 18.9257 33.0947 18.9257Z" fill="white"/>
<path d="M18.8018 25.8601H18.6603C18.0235 25.8601 17.5282 25.3648 17.5282 24.728V23.5252H16.3961C15.7593 23.5252 15.264 23.0299 15.264 22.3931V22.3223C15.264 21.6855 15.7593 21.1902 16.3961 21.1902H17.599V20.0581C17.599 19.4213 18.0943 18.926 18.7311 18.926H18.8726C19.5094 18.926 20.0047 19.4213 20.0047 20.0581V21.261H21.2075C21.8443 21.261 22.3396 21.7563 22.3396 22.3931V22.5346C22.3396 23.1714 21.8443 23.6667 21.2075 23.6667H20.0047V24.7988C19.9339 25.3648 19.4386 25.8601 18.8018 25.8601ZM16.3961 21.4025C15.9008 21.4025 15.4763 21.827 15.4763 22.3223V22.4638C15.4763 22.9591 15.9008 23.3837 16.3961 23.3837H17.6697C17.7405 23.3837 17.7405 23.4544 17.7405 23.4544V24.7988C17.7405 25.2941 18.165 25.7186 18.6603 25.7186H18.8018C19.2971 25.7186 19.7217 25.2941 19.7217 24.7988V23.5252C19.7217 23.4544 19.7924 23.4544 19.7924 23.4544H21.066C21.5613 23.4544 21.9859 23.0299 21.9859 22.5346V22.3223C21.9859 21.827 21.5613 21.4025 21.066 21.4025H19.7924C19.7217 21.4025 19.7217 21.3317 19.7217 21.3317V20.0581C19.7217 19.5628 19.3679 19.1383 18.8018 19.1383H18.6603C18.165 19.1383 17.7405 19.5628 17.7405 20.0581V21.3317C17.7405 21.4025 17.6697 21.4025 17.6697 21.4025H16.3961Z" fill="white"/>
<path d="M33.0946 20.978C32.387 20.978 31.8917 20.4119 31.8917 19.7751C31.8917 19.0676 32.4578 18.5723 33.0946 18.5723C33.8021 18.5723 34.2974 19.1383 34.2974 19.7751C34.3682 20.4119 33.8021 20.978 33.0946 20.978ZM33.0946 18.7138C32.5285 18.7138 32.0332 19.2091 32.0332 19.7751C32.0332 20.3412 32.5285 20.8365 33.0946 20.8365C33.6606 20.8365 34.1559 20.3412 34.1559 19.7751C34.1559 19.2091 33.6606 18.7138 33.0946 18.7138Z" fill="white"/>
</svg>
